# xmcd
#
# Track frame offsets:
#	150
#	21797
#	36724
#	54795
#	73899
#	91488
#	106226
#	128505
#	144288
#	158566
#	174306
#	191824
#	210162
#	226245
#	243799
#	263514
#	278966
#	296818
#	315687
#
# Disc length: 4425 seconds
#
# Revision: 0
# Processed by: cddbd v1.4PL0 Copyright (c) Steve Scherf et al.
# Submitted via: EasyCDDAExtractor 5.0.0.0
#
DISCID=04114713
DTITLE=Dyango - Sólo Lo Mejor
DYEAR=2002
DGENRE=Pop
TTITLE0=Esta noche quiero brandy
TTITLE1=Si la vieras con mis ojos
TTITLE2=Esa mujer
TTITLE3=El día que me quieras
TTITLE4=A donde vas amor
TTITLE5=Corazón mágico
TTITLE6=En esta tarde gris
TTITLE7=Querer y perder
TTITLE8=Tú, mujer
TTITLE9=Nostalgias
TTITLE10=Entre la espada y la pared
TTITLE11=Bendita tú
TTITLE12=Cada día te extraño más
TTITLE13=La noche y tú (con Sheena Easton)
TTITLE14=No te importe saber
TTITLE15=Cuando quieras, donde quieras
TTITLE16=Por volverte a ver
TTITLE17=Ódiame
TTITLE18=Hay algo en ella
EXTD=
EXTT0=
EXTT1=
EXTT2=
EXTT3=
EXTT4=
EXTT5=
EXTT6=
EXTT7=
EXTT8=
EXTT9=
EXTT10=
EXTT11=
EXTT12=
EXTT13=
EXTT14=
EXTT15=
EXTT16=
EXTT17=
EXTT18=
PLAYORDER=
